<svg _ngcontent-udk-c172="" xmlns="http://www.w3.org/2000/svg" xmlns:xlink="http://www.w3.org/1999/xlink" width="24px" height="24px" viewBox="0 0 24 24" version="1.1"><g _ngcontent-udk-c172="" stroke="none" stroke-width="1" fill="none" fill-rule="evenodd"><polygon _ngcontent-udk-c172="" points="0 0 24 0 24 24 0 24"></polygon><path _ngcontent-udk-c172="" opacity="0.3" d="M5.85714 2H13.7364C14.0911 2 14.4343 2.12568 14.7051 2.35474L19.4687 6.38394C19.8057 6.66895 20 7.08788 20 7.5292V20.0833C20 21.8739 19.9796 22 18.1429 22H5.85714C4.02045 22 4 21.8739 4 20.0833V3.91667C4 2.12612 4.02045 2 5.85714 2Z" fill="black"></path><path _ngcontent-udk-c172="" d="M10.2189 9.53356C10.789 8.51119 11.0739 8 11.5 8C11.9261 8 12.211 8.51119 12.7811 9.53356L12.9287 9.79816C13.0907 10.0889 13.1717 10.2342 13.2977 10.33C13.4237 10.4259 13.5812 10.4614 13.8962 10.5325L14.1824 10.5973C15.2894 10.848 15.8424 10.9731 15.9742 11.3965C16.1056 11.8195 15.7285 12.261 14.9739 13.1434L14.7786 13.3715C14.5644 13.6222 14.4569 13.7477 14.4087 13.9025C14.3606 14.0578 14.3768 14.2252 14.4092 14.5595L14.4389 14.8641C14.5527 16.0418 14.6099 16.6303 14.2652 16.8918C13.9205 17.1537 13.4021 16.9147 12.3662 16.4378L12.0976 16.3145C11.8033 16.1786 11.6561 16.1111 11.5 16.1111C11.3439 16.1111 11.1967 16.1786 10.9024 16.3145L10.6342 16.4378C9.59789 16.9147 9.07951 17.1532 8.73526 16.8922C8.39012 16.6303 8.44727 16.0418 8.56112 14.8641L8.59082 14.5599C8.62322 14.2252 8.63942 14.0578 8.59082 13.903C8.54312 13.7477 8.43557 13.6222 8.22138 13.372L8.02608 13.1434C7.27145 12.2614 6.89436 11.82 7.02576 11.3965C7.1576 10.9731 7.71109 10.8475 8.81806 10.5973L9.10426 10.5325C9.4188 10.4614 9.57585 10.4259 9.70229 10.33C9.82829 10.2342 9.90929 10.0889 10.0713 9.79816L10.2189 9.53356Z" fill="black"></path></g></svg>