<svg _ngcontent-udk-c172="" xmlns="http://www.w3.org/2000/svg" xmlns:xlink="http://www.w3.org/1999/xlink" width="24px" height="24px" viewBox="0 0 24 24" version="1.1"><g _ngcontent-udk-c172="" stroke="none" stroke-width="1" fill="none" fill-rule="evenodd"><rect _ngcontent-udk-c172="" x="0" y="0" width="24" height="24"></rect><path _ngcontent-udk-c172="" opacity="0.3" d="M5.85714 2H13.7364C14.0911 2 14.4343 2.12568 14.7051 2.35474L19.4687 6.38394C19.8057 6.66895 20 7.08788 20 7.5292V20.0833C20 21.8739 19.9796 22 18.1429 22H5.85714C4.02045 22 4 21.8739 4 20.0833V3.91667C4 2.12612 4.02045 2 5.85714 2Z" fill="black"></path><path _ngcontent-udk-c172="" fill-rule="evenodd" clip-rule="evenodd" d="M12.5315 7.00128C11.7438 6.98414 10.9619 7.13912 10.2403 7.45542C9.51874 7.77171 8.87489 8.24168 8.35373 8.83253C7.83256 9.42337 7.44663 10.1209 7.22289 10.8763C6.99915 11.6317 6.94299 12.4268 7.05832 13.2062C7.17366 13.9856 7.45771 14.7304 7.89065 15.3886C8.32359 16.0468 8.89498 16.6027 9.56493 17.0172C10.2349 17.4318 10.9873 17.6952 11.7695 17.7889C12.5518 17.8827 13.3451 17.8045 14.094 17.56C14.222 17.5182 14.3281 17.4272 14.389 17.3072C14.4499 17.1871 14.4606 17.0478 14.4188 16.9198C14.377 16.7919 14.2861 16.6858 14.166 16.6248C14.046 16.5639 13.9066 16.5532 13.7787 16.595C12.9648 16.8608 12.091 16.8832 11.2646 16.6596C10.4381 16.436 9.69489 15.9761 9.12602 15.3363C8.55716 14.6964 8.18739 13.9045 8.06207 13.0575C7.93675 12.2106 8.06132 11.3455 8.42052 10.5683C8.77971 9.7911 9.35791 9.13565 10.0842 8.6823C10.8105 8.22895 11.6533 7.99741 12.5093 8.01609C13.3652 8.03476 14.1971 8.30283 14.903 8.78743C15.6088 9.27202 16.1578 9.95207 16.4828 10.7442C16.5339 10.8687 16.6323 10.9679 16.7565 11.0199C16.818 11.0456 16.8839 11.059 16.9506 11.0592C17.0172 11.0595 17.0833 11.0466 17.145 11.0213C17.2066 10.996 17.2627 10.9588 17.31 10.9119C17.3573 10.8649 17.3949 10.8091 17.4207 10.7476C17.4464 10.6861 17.4598 10.6202 17.46 10.5535C17.4602 10.4868 17.4474 10.4208 17.4221 10.3591C17.0221 9.38418 16.3464 8.54715 15.4777 7.95069C14.6089 7.35422 13.585 7.02427 12.5315 7.00128ZM12.9206 9.5376C12.9206 9.40299 12.8671 9.2739 12.7719 9.17871C12.6768 9.08353 12.5477 9.03006 12.4131 9.03006C12.2784 9.03006 12.1494 9.08353 12.0542 9.17871C11.959 9.2739 11.9055 9.40299 11.9055 9.5376V12.2038L10.5291 13.5796C10.4792 13.6261 10.4392 13.6821 10.4115 13.7443C10.3838 13.8066 10.3688 13.8738 10.3676 13.942C10.3664 14.0101 10.379 14.0778 10.4045 14.141C10.43 14.2042 10.468 14.2616 10.5162 14.3098C10.5644 14.358 10.6218 14.396 10.685 14.4215C10.7482 14.447 10.8159 14.4596 10.884 14.4584C10.9522 14.4572 11.0194 14.4422 11.0817 14.4145C11.1439 14.3868 11.1999 14.3468 11.2464 14.2969L12.7717 12.7723L12.9206 12.6234V9.5376ZM17.15 17.1506C17.15 17.3301 17.0787 17.5022 16.9518 17.6291C16.8249 17.756 16.6528 17.8273 16.4733 17.8273C16.2938 17.8273 16.1217 17.756 15.9948 17.6291C15.8679 17.5022 15.7966 17.3301 15.7966 17.1506C15.7966 16.9711 15.8679 16.799 15.9948 16.6721C16.1217 16.5452 16.2938 16.4739 16.4733 16.4739C16.6528 16.4739 16.8249 16.5452 16.9518 16.6721C17.0787 16.799 17.15 16.9711 17.15 17.1506ZM16.9809 12.9212C16.9809 12.7865 16.9274 12.6575 16.8322 12.5623C16.737 12.4671 16.6079 12.4136 16.4733 12.4136C16.3387 12.4136 16.2096 12.4671 16.1144 12.5623C16.0193 12.6575 15.9658 12.7865 15.9658 12.9212V15.2896C15.9658 15.4242 16.0193 15.5533 16.1144 15.6485C16.2096 15.7437 16.3387 15.7972 16.4733 15.7972C16.6079 15.7972 16.737 15.7437 16.8322 15.6485C16.9274 15.5533 16.9809 15.4242 16.9809 15.2896V12.9212Z" fill="black"></path></g></svg>