<svg _ngcontent-udk-c172="" xmlns="http://www.w3.org/2000/svg" xmlns:xlink="http://www.w3.org/1999/xlink" width="24px" height="24px" viewBox="0 0 24 24" version="1.1"><g _ngcontent-udk-c172="" stroke="none" stroke-width="1" fill="none" fill-rule="evenodd"><rect _ngcontent-udk-c172="" x="0" y="0" width="24" height="24"></rect><path _ngcontent-udk-c172="" opacity="0.3" d="M5.85714 2H13.7364C14.0911 2 14.4343 2.12568 14.7051 2.35474L19.4687 6.38394C19.8057 6.66895 20 7.08788 20 7.5292V20.0833C20 21.8739 19.9796 22 18.1429 22H5.85714C4.02045 22 4 21.8739 4 20.0833V3.91667C4 2.12612 4.02045 2 5.85714 2Z" fill="black"></path><path _ngcontent-udk-c172="" d="M15.5556 11.1111L14.6689 16.1538C14.6327 16.3597 14.5251 16.5463 14.365 16.6808C14.2048 16.8152 14.0024 16.8889 13.7933 16.8889H10.2067C9.99757 16.8889 9.79517 16.8152 9.63503 16.6808C9.4749 16.5463 9.36728 16.3597 9.33111 16.1538L8.44444 11.1111M16 9.77778H13.5M13.5 9.77778V8.88889C13.5 8.65314 13.4063 8.42705 13.2397 8.26035C13.073 8.09365 12.8469 8 12.6111 8H11.3889C11.1531 8 10.927 8.09365 10.7603 8.26035C10.5937 8.42705 10.5 8.65314 10.5 8.88889V9.77778M13.5 9.77778H10.5M8 9.77778H10.5" stroke="black" stroke-width="1.5" stroke-linecap="round" stroke-linejoin="round"></path></g></svg>