<svg _ngcontent-udk-c172="" xmlns="http://www.w3.org/2000/svg" xmlns:xlink="http://www.w3.org/1999/xlink" width="24px" height="24px" viewBox="0 0 24 24" version="1.1"><g _ngcontent-udk-c172="" stroke="none" stroke-width="1" fill="none" fill-rule="evenodd"><rect _ngcontent-udk-c172="" x="0" y="0" width="24" height="24"></rect><path _ngcontent-udk-c172="" opacity="0.3" d="M5.85714 2H13.7364C14.0911 2 14.4343 2.12568 14.7051 2.35474L19.4687 6.38394C19.8057 6.66895 20 7.08788 20 7.5292V20.0833C20 21.8739 19.9796 22 18.1429 22H5.85714C4.02045 22 4 21.8739 4 20.0833V3.91667C4 2.12612 4.02045 2 5.85714 2Z" fill="black"></path><path _ngcontent-udk-c172="" d="M12 7C11.1067 7 10.3817 7.71667 10.3458 8.60167C9.59888 8.92084 8.96236 9.45276 8.51559 10.1311C8.06881 10.8095 7.83154 11.6044 7.83333 12.4167C7.83333 12.4875 7.83 12.5667 7.83333 12.6512C7.33958 12.9412 7 13.4729 7 14.0833C7 14.9987 7.75125 15.75 8.66667 15.75C8.90625 15.75 9.1375 15.6992 9.34375 15.6067C10.0658 16.2133 11.0075 16.5833 12 16.5833C12.9925 16.5833 13.9342 16.2133 14.6562 15.6067C14.8694 15.7015 15.1001 15.7504 15.3333 15.75C16.2487 15.75 17 14.9987 17 14.0833C17 13.4667 16.6562 12.9262 16.1542 12.6375C16.1604 12.5708 16.1667 12.5042 16.1667 12.4167C16.1686 11.6044 15.9313 10.8095 15.4846 10.131C15.0378 9.45264 14.4012 8.92075 13.6542 8.60167C13.6179 7.71667 12.8929 7 12 7ZM12 9.70833C12 9.24333 12.465 9.70833 12 9.70833C12 10.1733 12.465 9.5 12 9.5C11.535 9.5 11.7917 10.1733 11.7917 9.70833C11.7917 9.24333 11.535 9.70833 12 9.70833ZM10.5292 9.435C10.8083 9.96583 11.3625 10.3333 12 10.3333C12.6375 10.3333 13.1917 9.96583 13.4708 9.435C14.0302 9.70662 14.5017 10.1305 14.8311 10.6578C15.1605 11.1852 15.3346 11.7948 15.3333 12.4167C14.4179 12.4167 13.6667 13.1679 13.6667 14.0833C13.6667 14.4562 13.7958 14.7942 14.0054 15.0729C13.4271 15.5083 12.7239 15.7458 12 15.75C11.2761 15.7459 10.5728 15.5084 9.99458 15.0729C10.2126 14.789 10.3316 14.4414 10.3333 14.0833C10.3333 13.1679 9.58208 12.4167 8.66667 12.4167C8.66667 11.1167 9.4125 9.97667 10.5292 9.435ZM9.08333 15.0729C9.54833 15.0729 7.98441 12.7383 8.66667 13.25C7.83333 12.625 8.715 14.0833 8.25 14.0833C8.25 14.5483 8.875 14.7083 8.25 14.0833C8.25 13.6183 8.61833 15.0729 9.08333 15.0729ZM15.3333 15.3333C15.7983 15.3333 15.75 14.4517 15.75 14.9167C15.75 15.3817 15.7983 14.9167 15.3333 14.9167C14.8683 14.9167 15.4846 15.1733 15.4846 14.7083C15.4846 14.2433 14.8683 15.3333 15.3333 15.3333Z" fill="black"></path></g></svg>