<svg _ngcontent-ims-c218="" xmlns="http://www.w3.org/2000/svg" width="54" height="58" viewBox="0 0 54 58" fill="none" style="width: 20px; height: 20px;"><path _ngcontent-ims-c218="" d="M50.9672 35.5801H48.9202L40.2368 2.77836C40.046 2.10465 39.6163 1.53951 39.0412 1.20592C38.4662 0.872325 37.7923 0.797279 37.1662 0.997109L24.4465 4.88023C24.1868 4.9747 23.944 5.11626 23.7284 5.29883V3.51758C23.7284 2.80895 23.4675 2.12935 23.0031 1.62828C22.5387 1.1272 21.9089 0.845703 21.2522 0.845703H8.04547C7.38872 0.845703 6.75888 1.1272 6.29449 1.62828C5.8301 2.12935 5.56921 2.80895 5.56921 3.51758V35.5801H3.09295C2.43621 35.5801 1.80637 35.8616 1.34198 36.3627C0.87759 36.8637 0.616699 37.5433 0.616699 38.252V55.1738C0.616699 55.8825 0.87759 56.5621 1.34198 57.0631C1.80637 57.5642 2.43621 57.8457 3.09295 57.8457H50.9672C51.624 57.8457 52.2538 57.5642 52.7182 57.0631C53.1826 56.5621 53.4435 55.8825 53.4435 55.1738V38.252C53.4435 37.5433 53.1826 36.8637 52.7182 36.3627C52.2538 35.8616 51.624 35.5801 50.9672 35.5801ZM24.4053 7.00883C24.5127 6.80423 24.6907 6.65375 24.9005 6.59023L37.5954 2.62695C37.8066 2.5731 38.0289 2.61113 38.2143 2.7328C38.3997 2.85448 38.5332 3.05002 38.5859 3.27711L47.2033 35.5801H39.0069C38.4676 35.5793 37.9428 35.7684 37.5122 36.1189C37.0816 36.4693 36.7689 36.9619 36.6215 37.5216L35.6557 41.1643C35.6058 41.3569 35.4972 41.5258 35.3475 41.6438C35.1977 41.7617 35.0156 41.8218 34.8303 41.8145H33.3941L24.3145 7.69461C24.2864 7.57955 24.2799 7.45959 24.2955 7.3418C24.3111 7.22402 24.3484 7.1108 24.4053 7.00883ZM31.6772 41.8145H23.7284V11.8805L31.6772 41.8145ZM7.22005 3.51758C7.22005 3.28137 7.30701 3.05484 7.46181 2.88781C7.6166 2.72079 7.82655 2.62695 8.04547 2.62695H21.2522C21.4711 2.62695 21.681 2.72079 21.8358 2.88781C21.9906 3.05484 22.0776 3.28137 22.0776 3.51758V41.8145H19.1969C19.0127 41.8224 18.8313 41.7635 18.6817 41.6473C18.5322 41.5311 18.4229 41.3642 18.3715 41.1732L17.4057 37.5127C17.2584 36.9604 16.9499 36.4741 16.5262 36.126C16.1024 35.7778 15.5859 35.5864 15.0533 35.5801H7.22005V3.51758ZM51.7926 55.1738C51.7926 55.41 51.7057 55.6366 51.5509 55.8036C51.3961 55.9706 51.1861 56.0645 50.9672 56.0645H3.09295C2.87404 56.0645 2.66409 55.9706 2.5093 55.8036C2.3545 55.6366 2.26754 55.41 2.26754 55.1738V38.252C2.26754 38.0157 2.3545 37.7892 2.5093 37.6222C2.66409 37.4552 2.87404 37.3613 3.09295 37.3613H15.0533C15.2375 37.3534 15.4188 37.4123 15.5684 37.5285C15.718 37.6447 15.8272 37.8116 15.8787 38.0026L16.8444 41.663C16.9918 42.2153 17.3002 42.7016 17.724 43.0498C18.1477 43.398 18.6643 43.5894 19.1969 43.5957H34.8798C35.4191 43.5965 35.944 43.4073 36.3745 43.0569C36.8051 42.7065 37.1179 42.2139 37.2653 41.6541L38.231 38.0115C38.2809 37.8188 38.3895 37.6499 38.5393 37.532C38.689 37.4141 38.8712 37.3539 39.0564 37.3613H50.9672C51.1861 37.3613 51.3961 37.4552 51.5509 37.6222C51.7057 37.7892 51.7926 38.0157 51.7926 38.252V55.1738Z" fill="currentColor"></path><path _ngcontent-ims-c218="" d="M10.5217 7.9707H18.7759C18.9948 7.9707 19.2048 7.87687 19.3596 7.70984C19.5143 7.54282 19.6013 7.31629 19.6013 7.08008C19.6013 6.84387 19.5143 6.61734 19.3596 6.45031C19.2048 6.28329 18.9948 6.18945 18.7759 6.18945H10.5217C10.3028 6.18945 10.0928 6.28329 9.93805 6.45031C9.78325 6.61734 9.69629 6.84387 9.69629 7.08008C9.69629 7.31629 9.78325 7.54282 9.93805 7.70984C10.0928 7.87687 10.3028 7.9707 10.5217 7.9707Z" fill="currentColor"></path><path _ngcontent-ims-c218="" d="M10.5217 14.2051H18.7759C18.9948 14.2051 19.2048 14.1112 19.3596 13.9442C19.5143 13.7772 19.6013 13.5507 19.6013 13.3145C19.6013 13.0782 19.5143 12.8517 19.3596 12.6847C19.2048 12.5177 18.9948 12.4238 18.7759 12.4238H10.5217C10.3028 12.4238 10.0928 12.5177 9.93805 12.6847C9.78325 12.8517 9.69629 13.0782 9.69629 13.3145C9.69629 13.5507 9.78325 13.7772 9.93805 13.9442C10.0928 14.1112 10.3028 14.2051 10.5217 14.2051Z" fill="currentColor"></path><path _ngcontent-ims-c218="" d="M10.5217 20.4395H18.7759C18.9948 20.4395 19.2048 20.3456 19.3596 20.1786C19.5143 20.0116 19.6013 19.785 19.6013 19.5488C19.6013 19.3126 19.5143 19.0861 19.3596 18.9191C19.2048 18.752 18.9948 18.6582 18.7759 18.6582H10.5217C10.3028 18.6582 10.0928 18.752 9.93805 18.9191C9.78325 19.0861 9.69629 19.3126 9.69629 19.5488C9.69629 19.785 9.78325 20.0116 9.93805 20.1786C10.0928 20.3456 10.3028 20.4395 10.5217 20.4395Z" fill="currentColor"></path><path _ngcontent-ims-c218="" d="M10.5217 26.6738H18.7759C18.9948 26.6738 19.2048 26.58 19.3596 26.413C19.5143 26.2459 19.6013 26.0194 19.6013 25.7832C19.6013 25.547 19.5143 25.3205 19.3596 25.1534C19.2048 24.9864 18.9948 24.8926 18.7759 24.8926H10.5217C10.3028 24.8926 10.0928 24.9864 9.93805 25.1534C9.78325 25.3205 9.69629 25.547 9.69629 25.7832C9.69629 26.0194 9.78325 26.2459 9.93805 26.413C10.0928 26.58 10.3028 26.6738 10.5217 26.6738Z" fill="currentColor"></path><path _ngcontent-ims-c218="" d="M19.6013 32.0176C19.6013 31.7814 19.5143 31.5548 19.3596 31.3878C19.2048 31.2208 18.9948 31.127 18.7759 31.127H10.5217C10.3028 31.127 10.0928 31.2208 9.93805 31.3878C9.78325 31.5548 9.69629 31.7814 9.69629 32.0176C9.69629 32.2538 9.78325 32.4803 9.93805 32.6473C10.0928 32.8144 10.3028 32.9082 10.5217 32.9082H18.7759C18.9948 32.9082 19.2048 32.8144 19.3596 32.6473C19.5143 32.4803 19.6013 32.2538 19.6013 32.0176Z" fill="currentColor"></path><path _ngcontent-ims-c218="" d="M30.8106 22.3629C30.8605 22.5556 30.9691 22.7245 31.1188 22.8424C31.2686 22.9604 31.4507 23.0205 31.636 23.0131C31.7129 23.0211 31.7903 23.0211 31.8671 23.0131L39.7994 20.555C39.9993 20.4807 40.1651 20.3265 40.2627 20.1242C40.3603 19.9219 40.3823 19.6869 40.3241 19.4676C40.2659 19.2484 40.1319 19.0616 39.9498 18.9457C39.7677 18.8299 39.5514 18.7938 39.3454 18.845L31.4049 21.3031C31.1977 21.362 31.0199 21.5055 30.909 21.7033C30.7981 21.9011 30.7628 22.1376 30.8106 22.3629Z" fill="currentColor"></path><path _ngcontent-ims-c218="" d="M32.4037 28.3571C32.4536 28.5497 32.5622 28.7186 32.712 28.8366C32.8617 28.9545 33.0439 29.0146 33.2291 29.0072C33.3032 29.0159 33.3779 29.0159 33.452 29.0072L41.3925 26.5491C41.5924 26.4748 41.7582 26.3207 41.8558 26.1184C41.9535 25.916 41.9754 25.681 41.9172 25.4618C41.859 25.2425 41.7251 25.0557 41.543 24.9398C41.3609 24.824 41.1445 24.7879 40.9385 24.8391L32.998 27.2883C32.7891 27.3472 32.6098 27.4921 32.4987 27.6918C32.3876 27.8916 32.3535 28.1305 32.4037 28.3571Z" fill="currentColor"></path><path _ngcontent-ims-c218="" d="M33.9968 34.3515C34.0482 34.5425 34.1575 34.7094 34.3071 34.8256C34.4567 34.9418 34.638 35.0007 34.8222 34.9928C34.896 35.0057 34.9713 35.0057 35.0451 34.9928L42.9856 32.5435C43.0926 32.5102 43.1923 32.4537 43.2786 32.3777C43.3649 32.3016 43.436 32.2075 43.4877 32.101C43.5394 31.9944 43.5705 31.8777 43.5793 31.7579C43.588 31.638 43.5742 31.5175 43.5386 31.4035C43.4772 31.1788 43.3363 30.9892 43.1462 30.8758C42.9562 30.7625 42.7324 30.7345 42.5233 30.7979L34.5828 33.2471C34.4765 33.277 34.3768 33.3295 34.2896 33.4015C34.2023 33.4735 34.1293 33.5636 34.0747 33.6664C34.0201 33.7693 33.9851 33.8829 33.9717 34.0005C33.9583 34.1181 33.9669 34.2375 33.9968 34.3515Z" fill="currentColor"></path><path _ngcontent-ims-c218="" d="M33.295 17.6787C33.7561 17.6776 34.2147 17.6056 34.657 17.465C35.2825 17.2721 35.8667 16.9482 36.3761 16.5117C36.8856 16.0751 37.3104 15.5346 37.6262 14.9209C37.942 14.3072 38.1426 13.6324 38.2167 12.935C38.2907 12.2377 38.2367 11.5314 38.0577 10.8565C37.6954 9.4936 36.8462 8.34179 35.6968 7.65449C34.5474 6.96718 33.1921 6.80067 31.929 7.1916C30.6658 7.58252 29.5984 8.49886 28.9614 9.73901C28.3244 10.9792 28.1701 12.4416 28.5324 13.8045C28.8283 14.9209 29.4533 15.9029 30.3126 16.602C31.1719 17.301 32.2189 17.679 33.295 17.6787ZM30.4061 10.6428C30.6163 10.2325 30.8995 9.87111 31.2395 9.5792C31.5794 9.28729 31.9694 9.07064 32.3871 8.94168C32.6852 8.85009 32.9934 8.80216 33.3033 8.79918C33.8618 8.7989 34.4109 8.95543 34.8964 9.2534C35.3749 9.53604 35.7811 9.94225 36.0786 10.4357C36.3761 10.9291 36.5557 11.4944 36.6012 12.081C36.6467 12.6676 36.5568 13.2573 36.3396 13.7972C36.1223 14.3372 35.7844 14.8106 35.356 15.1753C34.9277 15.5399 34.4223 15.7843 33.8851 15.8866C33.3478 15.989 32.7954 15.9461 32.2773 15.7617C31.7592 15.5774 31.2914 15.2575 30.9159 14.8304C30.5404 14.4034 30.2688 13.8826 30.1254 13.3146C30.0067 12.8713 29.9703 12.407 30.0185 11.9485C30.0666 11.4899 30.1984 11.0462 30.4061 10.6428Z" fill="currentColor"></path></svg>