<svg _ngcontent-ejw-c201="" xmlns="http://www.w3.org/2000/svg" viewBox="0 0 1024 1024" version="1.1" class="svg-icon" style="width: 1em; height: 1em; vertical-align: middle; fill: #c90013; overflow: hidden;"><path _ngcontent-ejw-c201="" d="M174.08 940.8a32 32 0 0 1-22.4-54.4l704-704a32 32 0 0 1 45.44 0 32 32 0 0 1 0 44.8l-704 704a32.64 32.64 0 0 1-23.04 9.6z"></path><path _ngcontent-ejw-c201="" d="M878.08 940.8a31.36 31.36 0 0 1-22.4-9.6l-704-704a30.72 30.72 0 0 1 0-44.8 32 32 0 0 1 45.44 0l704 704a32 32 0 0 1 0 44.8 32.64 32.64 0 0 1-23.04 9.6z"></path></svg>