<svg width="27" height="31" viewBox="0 0 27 31" fill="none" xmlns="http://www.w3.org/2000/svg">
<g opacity="0.3">
<path opacity="0.3" d="M18.4305 6.48077C17.7392 6.4801 17.0763 6.20515 16.5874 5.71628C16.0986 5.22741 15.8236 4.56455 15.8229 3.87318V0.252686H4.17234C3.72534 0.25252 3.28269 0.340403 2.86967 0.511345C2.45665 0.682288 2.08136 0.932934 1.76522 1.24895C1.44909 1.56496 1.19832 1.94016 1.02722 2.35311C0.856124 2.76607 0.768066 3.20868 0.768066 3.65567V24.1698C0.768066 24.6168 0.856124 25.0594 1.02722 25.4724C1.19832 25.8853 1.44909 26.2605 1.76522 26.5765C2.08136 26.8926 2.45665 27.1432 2.86967 27.3141C3.28269 27.4851 3.72534 27.573 4.17234 27.5728H18.1587C19.0612 27.5728 19.9267 27.2143 20.5649 26.5761C21.2031 25.9379 21.5616 25.0723 21.5616 24.1698V6.48077H18.4305Z" fill="#0072FF"/>
</g>
<path d="M21.5617 6.48077H18.4306C17.7392 6.4801 17.0764 6.20515 16.5875 5.71628C16.0986 5.22741 15.8237 4.56455 15.823 3.87318V0.252686L21.5617 6.48077Z" fill="#0072FF"/>
<path d="M17.2837 10.8412H4.22808C4.10265 10.8412 3.98236 10.7914 3.89366 10.7027C3.80496 10.614 3.75513 10.4937 3.75513 10.3683C3.75496 10.306 3.76708 10.2444 3.79077 10.1869C3.81447 10.1294 3.84928 10.0771 3.89321 10.033C3.93715 9.98895 3.98933 9.95401 4.04679 9.93017C4.10426 9.90632 4.16587 9.89404 4.22808 9.89404H17.2837C17.4094 9.89404 17.53 9.94401 17.619 10.0329C17.7079 10.1219 17.7579 10.2425 17.7579 10.3683C17.7575 10.4938 17.7074 10.6141 17.6185 10.7028C17.5296 10.7914 17.4092 10.8412 17.2837 10.8412V10.8412Z" fill="#0072FF"/>
<path d="M17.2837 13.6698H4.22808C4.10265 13.6698 3.98236 13.62 3.89366 13.5313C3.80496 13.4426 3.75513 13.3223 3.75513 13.1969C3.75496 13.1347 3.76708 13.073 3.79077 13.0155C3.81447 12.958 3.84928 12.9057 3.89321 12.8616C3.93715 12.8176 3.98933 12.7826 4.04679 12.7588C4.10426 12.7349 4.16587 12.7227 4.22808 12.7227H17.2837C17.4094 12.7227 17.53 12.7726 17.619 12.8615C17.7079 12.9505 17.7579 13.0711 17.7579 13.1969C17.7575 13.3224 17.7074 13.4427 17.6185 13.5314C17.5296 13.62 17.4092 13.6698 17.2837 13.6698V13.6698Z" fill="#0072FF"/>
<path d="M17.2837 16.4987H4.22808C4.16587 16.4987 4.10426 16.4864 4.04679 16.4626C3.98933 16.4387 3.93715 16.4038 3.89321 16.3597C3.84928 16.3157 3.81447 16.2634 3.79077 16.2059C3.76708 16.1483 3.75496 16.0867 3.75513 16.0245C3.75513 15.899 3.80496 15.7787 3.89366 15.69C3.98236 15.6013 4.10265 15.5515 4.22808 15.5515H17.2837C17.4092 15.5515 17.5296 15.6013 17.6185 15.69C17.7074 15.7786 17.7575 15.8989 17.7579 16.0245C17.7579 16.1502 17.7079 16.2709 17.619 16.3598C17.53 16.4487 17.4094 16.4987 17.2837 16.4987Z" fill="#0072FF"/>
<path d="M12.1317 19.3275H4.22808C4.16587 19.3275 4.10426 19.3153 4.04679 19.2914C3.98933 19.2676 3.93715 19.2326 3.89321 19.1886C3.84928 19.1445 3.81447 19.0922 3.79077 19.0347C3.76708 18.9772 3.75496 18.9155 3.75513 18.8533C3.75513 18.7279 3.80496 18.6076 3.89366 18.5189C3.98236 18.4302 4.10265 18.3804 4.22808 18.3804H12.1317C12.2572 18.3804 12.3775 18.4302 12.4662 18.5189C12.5549 18.6076 12.6047 18.7279 12.6047 18.8533C12.6049 18.9155 12.5927 18.9772 12.5691 19.0347C12.5454 19.0922 12.5105 19.1445 12.4666 19.1886C12.4227 19.2326 12.3705 19.2676 12.313 19.2914C12.2556 19.3153 12.194 19.3275 12.1317 19.3275Z" fill="#0072FF"/>
<path d="M24.0301 21.8279H8.21769C7.09604 21.8279 6.18677 22.7372 6.18677 23.8588V28.5732C6.18677 29.6948 7.09604 30.6041 8.21769 30.6041H24.0301C25.1517 30.6041 26.061 29.6948 26.061 28.5732V23.8588C26.061 22.7372 25.1517 21.8279 24.0301 21.8279Z" fill="#0072FF"/>
<path d="M8.50471 27.2363V28.1557H7.55249V27.2363H8.50471Z" fill="white"/>
<path d="M12.1646 27.239C12.0059 27.5262 11.7668 27.7609 11.4767 27.9143C11.1498 28.0814 10.7865 28.1644 10.4195 28.1558H8.98291V24.3532H10.4195C10.7867 24.3443 11.1506 24.4255 11.4792 24.5897C11.7685 24.7398 12.0069 24.9721 12.1646 25.2574C12.3281 25.5609 12.4104 25.9016 12.4036 26.2463C12.4101 26.5922 12.3278 26.9339 12.1646 27.239V27.239ZM11.1757 27.048C11.2785 26.9425 11.3581 26.8167 11.4095 26.6786C11.4609 26.5406 11.4829 26.3933 11.4742 26.2463C11.483 26.0994 11.461 25.9523 11.4096 25.8145C11.3582 25.6766 11.2785 25.551 11.1757 25.4458C10.9453 25.2438 10.6444 25.141 10.3385 25.16H9.90353V27.3325H10.3385C10.6441 27.3513 10.9448 27.2491 11.1757 27.048Z" fill="white"/>
<path d="M15.7093 24.5443C15.9986 24.7086 16.2377 24.9486 16.401 25.2385C16.5721 25.5447 16.6594 25.8906 16.6539 26.2413C16.6603 26.5929 16.573 26.9399 16.401 27.2467C16.2381 27.5379 15.9984 27.7789 15.708 27.9435C15.4124 28.1123 15.0772 28.1996 14.7368 28.1964C14.3964 28.1996 14.0612 28.1123 13.7656 27.9435C13.4752 27.7789 13.2355 27.5379 13.0726 27.2467C12.9006 26.9399 12.8133 26.5929 12.8197 26.2413C12.8131 25.8905 12.9004 25.5443 13.0726 25.2385C13.2364 24.9485 13.4759 24.7086 13.7656 24.5443C14.0612 24.3754 14.3964 24.2882 14.7368 24.2913C15.0776 24.2884 15.4131 24.3756 15.7093 24.5443V24.5443ZM14.0147 25.4421C13.8282 25.6653 13.7333 25.9509 13.7492 26.2413C13.7332 26.5306 13.8282 26.8151 14.0147 27.0368C14.1056 27.1355 14.217 27.2132 14.3411 27.2643C14.4652 27.3154 14.5989 27.3387 14.733 27.3326C14.8666 27.3382 14.9999 27.3146 15.1235 27.2635C15.2471 27.2124 15.3581 27.135 15.4488 27.0368C15.6362 26.8155 15.7321 26.5309 15.7169 26.2413C15.732 25.9522 15.6371 25.668 15.4513 25.4459C15.3605 25.3471 15.2491 25.2694 15.125 25.2182C15.0009 25.1671 14.8671 25.1438 14.733 25.15C14.5993 25.1438 14.4658 25.1668 14.3418 25.2172C14.2178 25.2676 14.1062 25.3444 14.0147 25.4421V25.4421Z" fill="white"/>
<path d="M20.1085 24.6971C20.4293 24.9581 20.6474 25.324 20.7244 25.7303H19.7507C19.685 25.5619 19.5699 25.4173 19.4206 25.3155C19.2632 25.213 19.0785 25.1606 18.8907 25.165C18.7668 25.161 18.6435 25.1857 18.5306 25.237C18.4176 25.2883 18.3181 25.3649 18.2395 25.4609C18.0635 25.6862 17.9738 25.967 17.9866 26.2526C17.9737 26.537 18.0635 26.8166 18.2395 27.0404C18.3187 27.1354 18.4185 27.2111 18.5314 27.2617C18.6442 27.3123 18.7671 27.3365 18.8907 27.3325C19.0786 27.3375 19.2635 27.285 19.4206 27.182C19.5691 27.082 19.6841 26.9397 19.7507 26.7736H20.7244C20.6461 27.1786 20.4282 27.5434 20.1085 27.8042C19.7646 28.0668 19.3396 28.201 18.9072 28.1836C18.5665 28.1908 18.2301 28.106 17.9335 27.9382C17.6558 27.7769 17.4306 27.5389 17.2847 27.2528C17.1276 26.9391 17.049 26.592 17.0558 26.2412C17.0491 25.8904 17.1276 25.5432 17.2847 25.2295C17.4306 24.9434 17.6558 24.7055 17.9335 24.5441C18.2301 24.3763 18.5665 24.2916 18.9072 24.2987C19.3419 24.2872 19.7669 24.4282 20.1085 24.6971Z" fill="white"/>
<path d="M23.5483 28.1556L22.7466 26.972L22.0586 28.1556H21.004L22.2205 26.198L20.9673 24.353H22.0586L22.8389 25.4987L23.5104 24.353H24.56L23.3599 26.2676L24.6396 28.1556H23.5483Z" fill="white"/>
</svg>
