<svg width="27" height="32" viewBox="0 0 27 32" fill="none" xmlns="http://www.w3.org/2000/svg">
<g opacity="0.3">
<path opacity="0.3" d="M18.8534 7.08937C18.1429 7.08868 17.4618 6.80614 16.9594 6.30378C16.4571 5.80142 16.1745 5.12028 16.1739 4.40983V0.689453H4.2005C3.27306 0.689453 2.38362 1.05788 1.72783 1.71368C1.07204 2.36947 0.703613 3.2589 0.703613 4.18633V25.2664C0.704991 26.1929 1.07402 27.0811 1.72966 27.7357C2.38531 28.3904 3.27396 28.7581 4.2005 28.7581H18.574C19.5005 28.7581 20.3892 28.3904 21.0448 27.7357C21.7005 27.0811 22.0695 26.1929 22.0709 25.2664V7.08937H18.8534Z" fill="#FF3E4C"/>
</g>
<path d="M22.0708 7.08937H18.8533C18.1429 7.08868 17.4618 6.80614 16.9594 6.30378C16.457 5.80142 16.1745 5.12028 16.1738 4.40983V0.689453L22.0708 7.08937Z" fill="#FF3E4C"/>
<path d="M17.6748 20.2907H4.25903C4.12979 20.2907 4.00584 20.2393 3.91445 20.148C3.82307 20.0566 3.77173 19.9326 3.77173 19.8034C3.77207 19.6744 3.82356 19.5507 3.91491 19.4596C4.00626 19.3685 4.13002 19.3174 4.25903 19.3174H17.6748C17.8037 19.3174 17.9273 19.3686 18.0185 19.4597C18.1096 19.5508 18.1608 19.6745 18.1608 19.8034C18.161 19.8673 18.1485 19.9307 18.1242 19.9898C18.0998 20.0489 18.0641 20.1026 18.0189 20.1479C17.9738 20.1931 17.9201 20.2291 17.8611 20.2536C17.8021 20.2781 17.7387 20.2907 17.6748 20.2907Z" fill="#FF3E4C"/>
<path d="M17.6748 14.8017H4.25903C4.13002 14.8017 4.00626 14.7505 3.91491 14.6594C3.82356 14.5683 3.77207 14.4447 3.77173 14.3157C3.77173 14.1864 3.82307 14.0625 3.91445 13.9711C4.00584 13.8797 4.12979 13.8284 4.25903 13.8284H17.6748C17.7387 13.8284 17.8021 13.841 17.8611 13.8655C17.9201 13.89 17.9738 13.9259 18.0189 13.9712C18.0641 14.0164 18.0998 14.0702 18.1242 14.1293C18.1485 14.1884 18.161 14.2517 18.1608 14.3157C18.1608 14.4446 18.1096 14.5682 18.0185 14.6593C17.9273 14.7505 17.8037 14.8017 17.6748 14.8017Z" fill="#FF3E4C"/>
<path d="M17.6748 17.5463H4.25903C4.12979 17.5463 4.00584 17.495 3.91445 17.4036C3.82307 17.3122 3.77173 17.1882 3.77173 17.059C3.77207 16.93 3.82356 16.8064 3.91491 16.7153C4.00626 16.6241 4.13002 16.573 4.25903 16.573H17.6748C17.8037 16.573 17.9273 16.6242 18.0185 16.7154C18.1096 16.8065 18.1608 16.9301 18.1608 17.059C18.161 17.1229 18.1485 17.1863 18.1242 17.2454C18.0998 17.3045 18.0641 17.3582 18.0189 17.4035C17.9738 17.4488 17.9201 17.4847 17.8611 17.5092C17.8021 17.5337 17.7387 17.5463 17.6748 17.5463Z" fill="#FF3E4C"/>
<path d="M12.3834 12.0573H4.25903C4.13002 12.0573 4.00626 12.0061 3.91491 11.915C3.82356 11.8239 3.77207 11.7003 3.77173 11.5713C3.77173 11.442 3.82307 11.3181 3.91445 11.2267C4.00584 11.1353 4.12979 11.084 4.25903 11.084H12.3834C12.5124 11.0843 12.636 11.1358 12.7271 11.2272C12.8182 11.3185 12.8694 11.4423 12.8694 11.5713C12.869 11.7001 12.8177 11.8235 12.7266 11.9146C12.6356 12.0056 12.5121 12.0569 12.3834 12.0573V12.0573Z" fill="#FF3E4C"/>
<path d="M12.3834 9.31266H4.25903C4.13002 9.31266 4.00626 9.26148 3.91491 9.17037C3.82356 9.07927 3.77207 8.95567 3.77173 8.82666C3.77173 8.69742 3.82307 8.57344 3.91445 8.48206C4.00584 8.39067 4.12979 8.33936 4.25903 8.33936H12.3834C12.5124 8.3397 12.636 8.39118 12.7271 8.48253C12.8182 8.57388 12.8694 8.69764 12.8694 8.82666C12.869 8.95545 12.8177 9.07886 12.7266 9.16993C12.6356 9.261 12.5121 9.31232 12.3834 9.31266Z" fill="#FF3E4C"/>
<path d="M24.6061 22.8599H8.35746C7.20487 22.8599 6.27051 23.7942 6.27051 24.9468V29.7913C6.27051 30.9439 7.20487 31.8782 8.35746 31.8782H24.6061C25.7587 31.8782 26.6931 30.9439 26.6931 29.7913V24.9468C26.6931 23.7942 25.7587 22.8599 24.6061 22.8599Z" fill="#FF3E4C"/>
<path d="M11.601 28.4177V29.3624H10.6238V28.4177H11.601Z" fill="white"/>
<path d="M13.0382 27.9914V29.3623H12.0935V25.4548H13.6243C14.0882 25.4548 14.443 25.5705 14.686 25.8005C14.8089 25.9213 14.9049 26.0668 14.9676 26.2274C15.0303 26.388 15.0583 26.56 15.0498 26.7322C15.0545 26.9594 14.9985 27.1837 14.8874 27.3819C14.7739 27.5757 14.6058 27.7317 14.404 27.8303C14.1606 27.9453 13.8934 28.001 13.6243 27.9927L13.0382 27.9914ZM14.0882 26.7322C14.0882 26.3857 13.8985 26.2124 13.519 26.2124H13.0382V27.2299H13.519C13.8985 27.2334 14.0882 27.0675 14.0882 26.7322Z" fill="white"/>
<path d="M18.7833 28.4202C18.6206 28.7157 18.3748 28.9569 18.0764 29.1141C17.7406 29.2861 17.3672 29.3714 16.99 29.3623H15.5151V25.4548H16.99C17.3675 25.4453 17.7414 25.5288 18.079 25.6978C18.3766 25.8516 18.6218 26.0905 18.7833 26.3839C18.9524 26.6955 19.0375 27.0457 19.0302 27.4001C19.0373 27.7558 18.9522 28.1072 18.7833 28.4202ZM17.7671 28.224C17.8728 28.1156 17.9546 27.9863 18.0074 27.8444C18.0602 27.7026 18.0828 27.5512 18.0738 27.4001C18.0829 27.2492 18.0603 27.0981 18.0075 26.9564C17.9547 26.8147 17.8728 26.6857 17.7671 26.5776C17.5308 26.3702 17.222 26.2646 16.9082 26.2839H16.4599V28.5164H16.9082C17.2218 28.5354 17.5303 28.4304 17.7671 28.224Z" fill="white"/>
<path d="M22.1137 25.4548V26.2072H20.5115V27.0636H21.7486V27.7822H20.5115V29.3623H19.5654V25.4548H22.1137Z" fill="white"/>
<path d="M17.4369 8.33936H15.1394C14.7389 8.33936 14.4143 8.664 14.4143 9.06446V11.3619C14.4143 11.7624 14.7389 12.087 15.1394 12.087H17.4369C17.8374 12.087 18.162 11.7624 18.162 11.3619V9.06446C18.162 8.664 17.8374 8.33936 17.4369 8.33936Z" fill="#FF3E4C"/>
</svg>
