<svg _ngcontent-gsv-c201="" xmlns="http://www.w3.org/2000/svg" viewBox="0 0 1024 1024" version="1.1" class="svg-icon" style="width: 1em; height: 1em; vertical-align: middle; fill: #a846b2; overflow: hidden;"><path _ngcontent-gsv-c201="" d="M356.6592 154.99264q17.32608 0 30.0032 12.4928t12.67712 30.16704-12.67712 30.33088l-198.67648 198.67648 409.33376 0q78.00832 0 149.17632 30.33088t122.49088 81.83808 81.83808 122.49088 30.49472 149.34016l0 42.65984q0 17.67424-12.4928 30.16704t-30.16704 12.4928q-17.32608 0-30.0032-12.67712t-12.67712-30.0032l0-42.65984q0-60.66176-23.67488-115.99872t-63.67232-95.3344-95.3344-63.67232-115.99872-23.67488l-409.33376 0 198.67648 199.00416q12.67712 12.67712 12.67712 30.0032 0 17.67424-12.4928 30.33088t-30.16704 12.67712-30.33088-12.67712l-271.33952-271.6672q-12.32896-12.32896-12.32896-30.33088 0-17.67424 12.32896-30.0032l271.33952-271.6672q12.67712-12.67712 30.33088-12.67712z"></path></svg>