<svg _ngcontent-udk-c172="" xmlns="http://www.w3.org/2000/svg" xmlns:xlink="http://www.w3.org/1999/xlink" width="24px" height="24px" viewBox="0 0 24 24" version="1.1"><g _ngcontent-udk-c172="" stroke="none" stroke-width="1" fill="none" fill-rule="evenodd"><rect _ngcontent-udk-c172="" x="0" y="0" width="24" height="24"></rect><path _ngcontent-udk-c172="" opacity="0.3" d="M5.85714 2H13.7364C14.0911 2 14.4343 2.12568 14.7051 2.35474L19.4687 6.38394C19.8057 6.66895 20 7.08788 20 7.5292V20.0833C20 21.8739 19.9796 22 18.1429 22H5.85714C4.02045 22 4 21.8739 4 20.0833V3.91667C4 2.12612 4.02045 2 5.85714 2Z" fill="black"></path><path _ngcontent-udk-c172="" d="M12.9229 14.2192L10.6516 13.0458C10.4336 13.2508 10.1564 13.3901 9.85492 13.4461C9.55347 13.502 9.24127 13.4722 8.95768 13.3604C8.67409 13.2485 8.43181 13.0596 8.26138 12.8176C8.09095 12.5755 8 12.291 8 12C8 11.709 8.09095 11.4245 8.26138 11.1824C8.43181 10.9404 8.67409 10.7515 8.95768 10.6396C9.24127 10.5278 9.55347 10.498 9.85492 10.5539C10.1564 10.6099 10.4336 10.7492 10.6516 10.9542L12.9229 9.78077C12.845 9.43458 12.9012 9.07339 13.0814 8.76326C13.2615 8.45313 13.5535 8.21478 13.9039 8.0918C14.2543 7.96882 14.6397 7.96942 14.9897 8.0935C15.3396 8.21759 15.6308 8.45685 15.8098 8.76755C15.9889 9.07824 16.0438 9.4396 15.9647 9.78555C15.8856 10.1315 15.6777 10.4389 15.379 10.6516C15.0803 10.8642 14.7107 10.9679 14.3379 10.9437C13.9651 10.9195 13.6139 10.769 13.3487 10.5197L11.0774 11.6931C11.1226 11.8953 11.1226 12.1043 11.0774 12.3065L13.3487 13.4803C13.6139 13.231 13.9651 13.0805 14.3379 13.0563C14.7107 13.0321 15.0803 13.1358 15.379 13.3484C15.6777 13.5611 15.8856 13.8685 15.9647 14.2144C16.0438 14.5604 15.9889 14.9218 15.8098 15.2325C15.6308 15.5432 15.3396 15.7824 14.9897 15.9065C14.6397 16.0306 14.2543 16.0312 13.9039 15.9082C13.5535 15.7852 13.2615 15.5469 13.0814 15.2367C12.9012 14.9266 12.845 14.5654 12.9229 14.2192Z" fill="black"></path></g></svg>