<svg _ngcontent-lcv-c171="" xmlns="http://www.w3.org/2000/svg" width="26" height="26" viewBox="0 0 46 46" fill="none" class="kt-menu__link-icon" style="width: 26px!important; height: 26px !important;"><path _ngcontent-lcv-c171="" d="M25.0051 15.3141V40.92C25.0051 41.1921 25.2772 41.3621 25.5152 41.2261L35.3427 35.8873C35.4447 35.8192 35.5127 35.7172 35.5127 35.5812V21.061C35.5127 20.9249 35.4447 20.8229 35.3427 20.7549L25.5492 15.008C25.3112 14.872 25.0051 15.042 25.0051 15.3141ZM23.6109 41.0221V4.63641C23.6109 4.39838 23.3729 4.22835 23.1348 4.29636L11.199 8.71705C11.063 8.78506 10.9609 8.88707 10.9609 9.0571V36.7374C10.9609 36.8734 11.063 37.0094 11.199 37.0774L23.1348 41.3621C23.3729 41.4301 23.6109 41.2601 23.6109 41.0221Z" fill="url(#paint0_linear_299_9)"></path><defs _ngcontent-lcv-c171=""><linearGradient _ngcontent-lcv-c171="" id="paint0_linear_299_9" x1="23.2368" y1="4.28125" x2="23.2368" y2="41.3772" gradientUnits="userSpaceOnUse"><stop _ngcontent-lcv-c171="" offset="0.46" stop-color="currentColor"></stop><stop _ngcontent-lcv-c171="" offset="0.64" stop-color="currentColor"></stop></linearGradient></defs></svg>