<svg _ngcontent-lxd-c201="" width="64px" height="64px" viewBox="0 0 48 48" xmlns="http://www.w3.org/2000/svg" fill="#000000"><g _ngcontent-lxd-c201="" id="SVGRepo_bgCarrier" stroke-width="0"></g><g _ngcontent-lxd-c201="" id="SVGRepo_tracerCarrier" stroke-linecap="round" stroke-linejoin="round"></g><g _ngcontent-lxd-c201="" id="SVGRepo_iconCarrier"><title _ngcontent-lxd-c201="">tree-structure-solid </title><g _ngcontent-lxd-c201="" id="Layer_2" data-name="Layer 2"><g _ngcontent-lxd-c201="" id="icons_Q2" data-name="icons Q2"><g _ngcontent-lxd-c201=""><rect _ngcontent-lxd-c201="" width="48" height="48" fill="none"></rect><path _ngcontent-lxd-c201="" d="M26,30H42a2,2,0,0,0,2-2V20a2,2,0,0,0-2-2H26a2,2,0,0,0-2,2v2H16V14h6a2,2,0,0,0,2-2V4a2,2,0,0,0-2-2H6A2,2,0,0,0,4,4v8a2,2,0,0,0,2,2h6V40a2,2,0,0,0,2,2H24v2a2,2,0,0,0,2,2H42a2,2,0,0,0,2-2V36a2,2,0,0,0-2-2H26a2,2,0,0,0-2,2v2H16V26h8v2A2,2,0,0,0,26,30Z"></path></g></g></g></g></svg>