<svg width="26" height="32" viewBox="0 0 26 32" fill="none" xmlns="http://www.w3.org/2000/svg">
<g opacity="0.3">
<path opacity="0.3" d="M18.097 6.81909C17.395 6.81841 16.7219 6.53922 16.2255 6.04282C15.7291 5.54643 15.45 4.87336 15.4493 4.17135V0.495117H3.61801C2.70158 0.495117 1.82268 0.859177 1.17467 1.50719C0.526657 2.1552 0.162598 3.03407 0.162598 3.9505V24.7804C0.162598 25.6969 0.526657 26.5758 1.17467 27.2238C1.82268 27.8718 2.70158 28.2358 3.61801 28.2358H17.8196C18.7361 28.2358 19.615 27.8718 20.263 27.2238C20.911 26.5758 21.2751 25.6969 21.2751 24.7804V6.81909H18.097Z" fill="#00C650"/>
</g>
<path d="M21.275 6.81909H18.097C17.3949 6.81841 16.7219 6.53922 16.2255 6.04282C15.7291 5.54643 15.4499 4.87336 15.4492 4.17135V0.495117L21.275 6.81909Z" fill="#00C650"/>
<path d="M23.7816 22.4023H7.72577C6.58686 22.4023 5.66357 23.3256 5.66357 24.4645V29.2515C5.66357 30.3904 6.58686 31.3137 7.72577 31.3137H23.7816C24.9205 31.3137 25.8438 30.3904 25.8438 29.2515V24.4645C25.8438 23.3256 24.9205 22.4023 23.7816 22.4023Z" fill="#00C650"/>
<path d="M11.389 27.8943V28.8278H10.4221V27.8943H11.389Z" fill="white"/>
<path d="M14.2179 28.8277L13.4051 27.6258L12.7053 28.8277H11.6357L12.8697 26.84L11.5972 24.9666H12.7053L13.4976 26.1299L14.1807 24.9666H15.2452L14.0279 26.9106L15.3274 28.8277H14.2179Z" fill="white"/>
<path d="M18.3064 28.3039C18.1956 28.4812 18.0366 28.6233 17.848 28.7135C17.6184 28.821 17.3669 28.8734 17.1135 28.8663C16.7312 28.8823 16.3545 28.7708 16.0426 28.5492C15.9046 28.4456 15.7918 28.3123 15.7124 28.1592C15.6331 28.006 15.5892 27.8369 15.5842 27.6645H16.5781C16.5852 27.7945 16.6406 27.9173 16.7334 28.0086C16.8259 28.0948 16.9486 28.1409 17.075 28.137C17.1265 28.14 17.178 28.1328 17.2267 28.1159C17.2754 28.0989 17.3203 28.0725 17.3588 28.0381C17.393 28.0049 17.42 27.9649 17.4379 27.9207C17.4558 27.8765 17.4642 27.829 17.4628 27.7813C17.464 27.7361 17.4562 27.691 17.4396 27.6489C17.4231 27.6067 17.3982 27.5684 17.3665 27.5361C17.2985 27.4673 17.2178 27.4123 17.1289 27.3743C17.0356 27.3332 16.9046 27.2831 16.736 27.224C16.5313 27.1566 16.3315 27.0755 16.1376 26.9814C15.9784 26.8993 15.8416 26.7794 15.7396 26.6321C15.6211 26.4538 15.5626 26.2424 15.5726 26.0286C15.568 25.8167 15.629 25.6086 15.7473 25.4328C15.8687 25.261 16.0367 25.1273 16.2314 25.0476C16.4558 24.9563 16.6967 24.9126 16.9389 24.9192C17.3066 24.8989 17.6698 25.0074 17.9661 25.2261C18.0922 25.3287 18.1955 25.4564 18.2694 25.6013C18.3433 25.7461 18.386 25.9048 18.395 26.0671H17.3845C17.3732 25.9535 17.3244 25.8469 17.2458 25.7641C17.2056 25.7256 17.158 25.6957 17.1059 25.6763C17.0538 25.6569 16.9983 25.6483 16.9427 25.6511C16.8464 25.6467 16.7519 25.6778 16.6769 25.7384C16.6424 25.7712 16.6154 25.8112 16.5981 25.8556C16.5808 25.9 16.5735 25.9477 16.5768 25.9952C16.5748 26.0815 16.6071 26.1651 16.6667 26.2276C16.7305 26.2943 16.8075 26.3472 16.8926 26.383C16.9838 26.4228 17.1148 26.4742 17.2856 26.5358C17.4939 26.6037 17.6969 26.6869 17.8929 26.7849C18.053 26.8712 18.191 26.9934 18.2961 27.1419C18.4159 27.323 18.4753 27.5374 18.4656 27.7544C18.4639 27.9487 18.4088 28.1388 18.3064 28.3039V28.3039Z" fill="white"/>
<path d="M19.9151 28.1125H21.1658V28.8277H18.9829V24.9666H19.9177L19.9151 28.1125Z" fill="white"/>
<path d="M15.4288 19.8637H6.01415C5.19877 19.8637 4.53491 19.0522 4.53491 18.0532V11.2233C4.53491 10.2256 5.19877 9.41406 6.01415 9.41406H15.4327C16.2468 9.41406 16.9107 10.2256 16.9107 11.2233V18.0532C16.9068 19.0522 16.2429 19.8637 15.4288 19.8637ZM6.01415 10.3386C5.6148 10.3386 5.29124 10.7354 5.29124 11.2233V18.0532C5.29124 18.5411 5.6148 18.9379 6.01415 18.9379H15.4327C15.8308 18.9379 16.1543 18.5411 16.1543 18.0532V11.2233C16.1543 10.7354 15.8308 10.3386 15.4327 10.3386H6.01415Z" fill="#00C650"/>
<path d="M16.5291 15.751H4.90967V16.6768H16.5291V15.751Z" fill="#00C650"/>
<path d="M16.5291 12.5769H4.90967V13.5027H16.5291V12.5769Z" fill="#00C650"/>
<path d="M13.5528 9.87646H12.627V19.4003H13.5528V9.87646Z" fill="#00C650"/>
<path d="M8.81081 9.87646H7.88501V19.4003H8.81081V9.87646Z" fill="#00C650"/>
</svg>
